<svg width="751" height="501" viewBox="0 0 751 501" fill="none" xmlns="http://www.w3.org/2000/svg">
<rect width="246" height="168.125" fill="black"/>
<rect x="108.64" y="168.125" width="28.0964" height="43.75" fill="black"/>
<ellipse cx="123" cy="204.688" rx="60.5634" ry="20.3125" fill="black"/>
<rect x="305" y="383.903" width="94" height="95.1939" fill="#C4C4C4"/>
<ellipse cx="352" cy="479.097" rx="47" ry="21.903" fill="#C4C4C4"/>
<path d="M398.5 383.903C398.5 389.641 393.489 394.992 385.023 398.938C376.597 402.864 364.923 405.306 352 405.306C339.077 405.306 327.403 402.864 318.977 398.938C310.511 394.992 305.5 389.641 305.5 383.903C305.5 378.165 310.511 372.814 318.977 368.868C327.403 364.942 339.077 362.5 352 362.5C364.923 362.5 376.597 364.942 385.023 368.868C393.489 372.814 398.5 378.165 398.5 383.903Z" fill="#C4C4C4" stroke="black"/>
<rect x="657" y="383.903" width="94" height="95.1939" fill="#C4C4C4"/>
<ellipse cx="704" cy="479.097" rx="47" ry="21.903" fill="#C4C4C4"/>
<path d="M750.5 383.903C750.5 389.641 745.489 394.992 737.023 398.938C728.597 402.864 716.923 405.306 704 405.306C691.077 405.306 679.403 402.864 670.977 398.938C662.511 394.992 657.5 389.641 657.5 383.903C657.5 378.165 662.511 372.814 670.977 368.868C679.403 364.942 691.077 362.5 704 362.5C716.923 362.5 728.597 364.942 737.023 368.868C745.489 372.814 750.5 378.165 750.5 383.903Z" fill="#C4C4C4" stroke="black"/>
<rect x="481" y="383.903" width="94" height="95.1939" fill="#C4C4C4"/>
<ellipse cx="528" cy="479.097" rx="47" ry="21.903" fill="#C4C4C4"/>
<path d="M574.5 383.903C574.5 389.641 569.489 394.992 561.023 398.938C552.597 402.864 540.923 405.306 528 405.306C515.077 405.306 503.403 402.864 494.977 398.938C486.511 394.992 481.5 389.641 481.5 383.903C481.5 378.165 486.511 372.814 494.977 368.868C503.403 364.942 515.077 362.5 528 362.5C540.923 362.5 552.597 364.942 561.023 368.868C569.489 372.814 574.5 378.165 574.5 383.903Z" fill="#C4C4C4" stroke="black"/>
<rect x="467" y="13" width="122" height="200" fill="#797979"/>
<rect x="548" y="35" width="41" height="10" fill="#FFFF00"/>
<circle cx="493" cy="40" r="8" fill="#00FF00"/>
<rect x="525" y="213" width="6" height="140" fill="black"/>
<rect x="496" y="213" width="6" height="70" fill="black"/>
<rect x="502" y="277" width="6.00001" height="154" transform="rotate(90 502 277)" fill="black"/>
<rect x="554" y="213" width="6" height="70" fill="black"/>
<path d="M528.5 362L512.479 334.25L544.521 334.25L528.5 362Z" fill="black"/>
<rect x="348" y="277" width="6" height="76" fill="black"/>
<path d="M351.5 362L335.479 334.25L367.521 334.25L351.5 362Z" fill="black"/>
<rect width="6.00001" height="154" transform="matrix(4.37114e-08 1 1 -4.37114e-08 554 277)" fill="black"/>
<rect width="6" height="76" transform="matrix(-1 0 0 1 708 277)" fill="black"/>
<path d="M704.5 362L720.521 334.25L688.479 334.25L704.5 362Z" fill="black"/>
<rect x="246" y="116" width="5.99999" height="212" transform="rotate(-90 246 116)" fill="black"/>
<path d="M467 112.5L439.25 128.521L439.25 96.4785L467 112.5Z" fill="black"/>
</svg>
