<svg width="64" height="64" viewBox="0 0 64 64" fill="none" xmlns="http://www.w3.org/2000/svg">
<path d="M25.4526 19L33 44H29.5455L27.9308 38.1985H18.8814L17.2668 44H14L21.5099 19H25.4526ZM23.4249 21.9771L19.67 35.2977H27.1423L23.4249 21.9771Z" fill="black"/>
<path d="M43.8889 19C44.8519 19 45.8889 19.1021 47 19.3063C48.1358 19.485 48.8024 19.5872 49 19.6127L48.9259 22.4845C46.7531 22.0761 45.0741 21.8719 43.8889 21.8719C42.2099 21.8719 41 22.2293 40.2593 22.944C39.5185 23.6588 39.1481 24.8458 39.1481 26.5052V37.4566C39.1481 39.1159 39.5061 40.3029 40.2222 41.0177C40.963 41.7069 42.1852 42.0515 43.8889 42.0515C45.0741 42.0515 46.7531 41.8473 48.9259 41.4389L49 44.3873C48.8024 44.4128 48.1358 44.515 47 44.6937C45.8889 44.8979 44.8519 45 43.8889 45C41.0494 45 39.0247 44.3745 37.8148 43.1237C36.605 41.8729 36 39.92 36 37.2651V26.7349C36 24.08 36.605 22.1271 37.8148 20.8763C39.0247 19.6255 41.0494 19 43.8889 19Z" fill="black"/>
<rect y="60" width="64" height="4" fill="black"/>
<rect x="60" width="4" height="64" fill="black"/>
<rect width="4" height="64" fill="black"/>
<rect width="64" height="4" fill="black"/>
</svg>
